# xmcd
#
# Track frame offsets: 
#        150
#        19674
#        41104
#        61541
#        83217
#        97599
#        115726
#        130412
#        157902
#
# Disc length: 2314 seconds
#
# Revision: 0
# Processed by: cddbd v1.5.2PL0 Copyright (c) Steve Scherf et al.
# Submitted via: ExactAudioCopy v1.0b3
#
DISCID=5f090809
DTITLE=Nels Andrews - Off Track Betting
DYEAR=2008
DGENRE=Country
TTITLE0=Fever Dream
TTITLE1=Temple Incense
TTITLE2=Three Days
TTITLE3=Lady Of The Silver Spoon
TTITLE4=Butterfly Wing
TTITLE5=Rented White Sedan
TTITLE6=Shoot Out The Stars
TTITLE7=Sunday Shoes
TTITLE8=Dollar And The Dream
EXTD=
EXTT0=
EXTT1=
EXTT2=
EXTT3=
EXTT4=
EXTT5=
EXTT6=
EXTT7=
EXTT8=
PLAYORDER=
